<?xml version="1.0" encoding="UTF-8" standalone="no"?><svg xmlns="http://www.w3.org/2000/svg" xmlns:xlink="http://www.w3.org/1999/xlink" contentScriptType="application/ecmascript" contentStyleType="text/css" height="470px" preserveAspectRatio="none" style="width:265px;height:470px;" version="1.1" viewBox="0 0 265 470" width="265px" zoomAndPan="magnify"><defs><filter height="300%" id="f1qc4ehnx7grcp" width="300%" x="-1" y="-1"><feGaussianBlur result="blurOut" stdDeviation="2.0"/><feColorMatrix in="blurOut" result="blurOut2" type="matrix" values="0 0 0 0 0 0 0 0 0 0 0 0 0 0 0 0 0 0 .4 0"/><feOffset dx="4.0" dy="4.0" in="blurOut2" result="blurOut3"/><feBlend in="SourceGraphic" in2="blurOut3" mode="normal"/></filter></defs><g><polygon fill="#FEFECE" filter="url(#f1qc4ehnx7grcp)" points="74,7,74,7.2102,84,6.5857,94,7.1933,104,7.3997,114,6.2866,124,6.9223,134,6.5735,144,6.6165,154,6.9318,164,7,163.7695,7,164.1845,13.8266,163.7899,20.6531,163.9341,27.4797,164.144,34.3063,164,41.1328,164,41.047,154,41.2011,144,41.1009,134,41.3113,124,41.3719,114,41.7185,104,41.8039,94,41.8121,84,41.3874,74,41.1328,74.1545,41.1328,74.2341,34.3063,73.7596,27.4797,74.2262,20.6531,73.9012,13.8266,74,7" style="stroke: #A80036; stroke-width: 1.5;"/><text fill="#000000" font-family="sans-serif" font-size="12" lengthAdjust="spacingAndGlyphs" textLength="76" x="81" y="20.6016">Printer_5256</text><path d="M75,25.1328 L75,25.4131 L84.7778,24.5804 L94.5556,25.3905 L104.3333,25.6657 L114.1111,24.1816 L123.8889,25.0292 L133.6667,24.5642 L143.4444,24.6215 L153.2222,25.0419 L163,25.1328 " fill="#FEFECE" style="stroke: #A80036; stroke-width: 1.5;"/><polygon fill="#FEFECE" filter="url(#f1qc4ehnx7grcp)" points="74,118,74,118.2102,84,117.5857,94,118.1933,104,118.3997,114,117.2866,124,117.9223,134,117.5735,144,117.6165,154,117.9318,164,118,163.3086,118,164.5536,127.9375,163.3697,137.875,163.8022,147.8125,164.4319,157.75,164,167.6875,164,167.6017,154,167.7557,144,167.6556,134,167.866,124,167.9266,114,168.2732,104,168.3586,94,168.3668,84,167.9421,74,167.6875,74.4636,167.6875,74.7022,157.75,73.2788,147.8125,74.6785,137.875,73.7035,127.9375,74,118" style="stroke: #A80036; stroke-width: 1.5;"/><text fill="#000000" font-family="sans-serif" font-size="12" lengthAdjust="spacingAndGlyphs" textLength="76" x="81" y="131.6016">Printer_5224</text><path d="M75,136.1328 L75,136.4131 L84.7778,135.5804 L94.5556,136.3905 L104.3333,136.6657 L114.1111,135.1816 L123.8889,136.0292 L133.6667,135.5642 L143.4444,135.6215 L153.2222,136.0419 L163,136.1328 " fill="#FEFECE" style="stroke: #A80036; stroke-width: 1.5;"/><polygon fill="none" points="88.0166,147.8625,87.5768,148.4634,87.0567,149.3435,86.3128,149.9366,85.5311,150.2609,84.9078,150.289,84.1067,149.8834,83.3509,149.6184,82.7771,149.0804,82.4762,148.4645,82.2977,147.974,82.1229,147.3335,81.8391,146.7822,82.0572,146.244,82.2482,145.6544,82.9653,145.1881,83.4697,144.5831,84.0941,144.3822,84.8364,144.2092,85.7883,144.312,86.3097,144.5579,86.9158,144.6693,87.6529,145.4244,87.9098,146.2216,88.0214,146.7655,87.895,147.6619" style="stroke: #038048; stroke-width: 1.0;"/><text fill="#000000" font-family="sans-serif" font-size="10" lengthAdjust="spacingAndGlyphs" textLength="16" x="94" y="149.8008">CPI</text><polygon fill="none" points="88.0166,159.6399,87.5768,160.2407,87.0567,161.1208,86.3128,161.7139,85.5311,162.0382,84.9078,162.0664,84.1067,161.6608,83.3509,161.3958,82.7771,160.8578,82.4762,160.2418,82.2977,159.7514,82.1229,159.1108,81.8391,158.5596,82.0572,158.0213,82.2482,157.4318,82.9653,156.9655,83.4697,156.3605,84.0941,156.1595,84.8364,155.9865,85.7883,156.0893,86.3097,156.3352,86.9158,156.4467,87.6529,157.2018,87.9098,157.999,88.0214,158.5429,87.895,159.4392" style="stroke: #038048; stroke-width: 1.0;"/><text fill="#000000" font-family="sans-serif" font-size="10" lengthAdjust="spacingAndGlyphs" textLength="14" x="94" y="161.5781">LPI</text><polygon fill="#FEFECE" filter="url(#f1qc4ehnx7grcp)" points="7,251,7,251.2102,16.6364,250.5857,26.2727,251.1933,35.9091,251.3997,45.5455,250.2866,55.1818,250.9223,64.8182,250.5735,74.4545,250.6165,84.0909,250.9318,93.7273,250.3086,103.3636,251.5536,113,251,112.3697,251,112.8022,261.2441,113.4319,271.4883,112.9142,281.7324,113.0682,291.9766,112.9681,302.2207,113,312.4648,113,312.6434,103.3636,312.704,93.7273,313.0505,84.0909,313.1359,74.4545,313.1441,64.8182,312.7195,55.1818,312.9284,45.5455,313.1671,35.9091,311.7437,26.2727,313.1434,16.6364,312.1683,7,312.4648,7.5338,312.4648,6.505,302.2207,6.9315,291.9766,7.7416,281.7324,6.9513,271.4883,7.1053,261.2441,7,251" style="stroke: #A80036; stroke-width: 1.5;"/><text fill="#000000" font-family="sans-serif" font-size="12" lengthAdjust="spacingAndGlyphs" textLength="76" x="22" y="264.6016">Printer_5219</text><path d="M8,269.1328 L8,269.4131 L18.4,268.5804 L28.8,269.3905 L39.2,269.6657 L49.6,268.1816 L60,269.0292 L70.4,268.5642 L80.8,268.6215 L91.2,269.0419 L101.6,268.211 L112,269.1328 " fill="#FEFECE" style="stroke: #A80036; stroke-width: 1.5;"/><polygon fill="none" points="21.0166,280.8625,20.5768,281.4634,20.0567,282.3435,19.3128,282.9366,18.5311,283.2609,17.9078,283.289,17.1067,282.8834,16.3509,282.6184,15.7771,282.0804,15.4762,281.4645,15.2977,280.974,15.1229,280.3335,14.8391,279.7822,15.0572,279.244,15.2482,278.6544,15.9653,278.1881,16.4697,277.5831,17.0941,277.3822,17.8364,277.2092,18.7883,277.312,19.3097,277.5579,19.9158,277.6693,20.6529,278.4244,20.9098,279.2216,21.0214,279.7655,20.895,280.6619" style="stroke: #038048; stroke-width: 1.0;"/><text fill="#000000" font-family="sans-serif" font-size="10" lengthAdjust="spacingAndGlyphs" textLength="39" x="27" y="282.8008">Margins</text><polygon fill="none" points="21.0166,292.6399,20.5768,293.2407,20.0567,294.1208,19.3128,294.7139,18.5311,295.0382,17.9078,295.0664,17.1067,294.6608,16.3509,294.3958,15.7771,293.8578,15.4762,293.2418,15.2977,292.7514,15.1229,292.1108,14.8391,291.5596,15.0572,291.0213,15.2482,290.4318,15.9653,289.9655,16.4697,289.3605,17.0941,289.1595,17.8364,288.9865,18.7883,289.0893,19.3097,289.3352,19.9158,289.4467,20.6529,290.2018,20.9098,290.999,21.0214,291.5429,20.895,292.4392" style="stroke: #038048; stroke-width: 1.0;"/><text fill="#000000" font-family="sans-serif" font-size="10" lengthAdjust="spacingAndGlyphs" textLength="80" x="27" y="294.5781">form size &amp; type</text><polygon fill="none" points="21.0166,304.4172,20.5768,305.0181,20.0567,305.8981,19.3128,306.4912,18.5311,306.8156,17.9078,306.8437,17.1067,306.4381,16.3509,306.1731,15.7771,305.6351,15.4762,305.0192,15.2977,304.5287,15.1229,303.8881,14.8391,303.3369,15.0572,302.7987,15.2482,302.2091,15.9653,301.7428,16.4697,301.1378,17.0941,300.9369,17.8364,300.7639,18.7883,300.8667,19.3097,301.1126,19.9158,301.224,20.6529,301.9791,20.9098,302.7763,21.0214,303.3202,20.895,304.2166" style="stroke: #038048; stroke-width: 1.0;"/><text fill="#000000" font-family="sans-serif" font-size="10" lengthAdjust="spacingAndGlyphs" textLength="74" x="27" y="306.3555">drawer number</text><polygon fill="#FEFECE" filter="url(#f1qc4ehnx7grcp)" points="148,245,148,245.2102,158,244.5857,168,245.1933,178,245.3997,188,244.2866,198,244.9223,208,244.5735,218,244.6165,228,244.9318,238,245,237.3086,245,238.5536,255.4632,237.3697,265.9263,237.8022,276.3895,238.4319,286.8527,237.9142,297.3158,238.0682,307.779,238,318.2422,238,318.2102,228,318.4207,218,318.4813,208,318.8279,198,318.9132,188,318.9214,178,318.4968,168,318.7058,158,318.9444,148,318.2422,147.2788,318.2422,148.6785,307.779,147.7035,297.3158,148.5338,286.8527,147.505,276.3895,147.9315,265.9263,148.7416,255.4632,148,245" style="stroke: #A80036; stroke-width: 1.5;"/><text fill="#000000" font-family="sans-serif" font-size="12" lengthAdjust="spacingAndGlyphs" textLength="76" x="155" y="258.6016">Printer_5553</text><path d="M149,263.1328 L149,263.4131 L158.7778,262.5804 L168.5556,263.3905 L178.3333,263.6657 L188.1111,262.1816 L197.8889,263.0292 L207.6667,262.5642 L217.4444,262.6215 L227.2222,263.0419 L237,263.1328 " fill="#FEFECE" style="stroke: #A80036; stroke-width: 1.5;"/><polygon fill="none" points="162.0166,274.8625,161.5768,275.4634,161.0567,276.3435,160.3128,276.9366,159.5311,277.2609,158.9078,277.289,158.1067,276.8834,157.3509,276.6184,156.7771,276.0804,156.4762,275.4645,156.2977,274.974,156.1229,274.3335,155.8391,273.7822,156.0572,273.244,156.2482,272.6544,156.9653,272.1881,157.4697,271.5831,158.0941,271.3822,158.8364,271.2092,159.7883,271.312,160.3097,271.5579,160.9158,271.6693,161.6529,272.4244,161.9098,273.2216,162.0214,273.7655,161.895,274.6619" style="stroke: #038048; stroke-width: 1.0;"/><text fill="#000000" font-family="sans-serif" font-size="10" lengthAdjust="spacingAndGlyphs" textLength="39" x="168" y="276.8008">rotation</text><polygon fill="none" points="162.0166,286.6399,161.5768,287.2407,161.0567,288.1208,160.3128,288.7139,159.5311,289.0382,158.9078,289.0664,158.1067,288.6608,157.3509,288.3958,156.7771,287.8578,156.4762,287.2418,156.2977,286.7514,156.1229,286.1108,155.8391,285.5596,156.0572,285.0213,156.2482,284.4318,156.9653,283.9655,157.4697,283.3605,158.0941,283.1595,158.8364,282.9865,159.7883,283.0893,160.3097,283.3352,160.9158,283.4467,161.6529,284.2018,161.9098,284.999,162.0214,285.5429,161.895,286.4392" style="stroke: #038048; stroke-width: 1.0;"/><text fill="#000000" font-family="sans-serif" font-size="10" lengthAdjust="spacingAndGlyphs" textLength="45" x="168" y="288.5781">grid lines</text><polygon fill="none" points="162.0166,298.4172,161.5768,299.0181,161.0567,299.8981,160.3128,300.4912,159.5311,300.8156,158.9078,300.8437,158.1067,300.4381,157.3509,300.1731,156.7771,299.6351,156.4762,299.0192,156.2977,298.5287,156.1229,297.8881,155.8391,297.3369,156.0572,296.7987,156.2482,296.2091,156.9653,295.7428,157.4697,295.1378,158.0941,294.9369,158.8364,294.7639,159.7883,294.8667,160.3097,295.1126,160.9158,295.224,161.6529,295.9791,161.9098,296.7763,162.0214,297.3202,161.895,298.2166" style="stroke: #038048; stroke-width: 1.0;"/><text fill="#000000" font-family="sans-serif" font-size="10" lengthAdjust="spacingAndGlyphs" textLength="57" x="168" y="300.3555">font scaling</text><polygon fill="none" points="162.0166,310.1946,161.5768,310.7954,161.0567,311.6755,160.3128,312.2686,159.5311,312.5929,158.9078,312.6211,158.1067,312.2154,157.3509,311.9505,156.7771,311.4124,156.4762,310.7965,156.2977,310.3061,156.1229,309.6655,155.8391,309.1142,156.0572,308.576,156.2482,307.9865,156.9653,307.5202,157.4697,306.9151,158.0941,306.7142,158.8364,306.5412,159.7883,306.644,160.3097,306.8899,160.9158,307.0013,161.6529,307.7565,161.9098,308.5536,162.0214,309.0976,161.895,309.9939" style="stroke: #038048; stroke-width: 1.0;"/><text fill="#000000" font-family="sans-serif" font-size="10" lengthAdjust="spacingAndGlyphs" textLength="25" x="168" y="312.1328">DBCS</text><polygon fill="#FEFECE" filter="url(#f1qc4ehnx7grcp)" points="141.5,395,141.5,395.2102,151.8,394.5857,162.1,395.1933,172.4,395.3997,182.7,394.2866,193,394.9223,203.3,394.5735,213.6,394.6165,223.9,394.9318,234.2,394.3086,244.5,395,245.0536,395,243.8697,405.2441,244.3022,415.4883,244.9319,425.7324,244.4142,435.9766,244.5682,446.2207,244.5,456.4648,244.5,456.4329,234.2,456.6434,223.9,456.704,213.6,457.0505,203.3,457.1359,193,457.1441,182.7,456.7195,172.4,456.9284,162.1,457.1671,151.8,455.7437,141.5,456.4648,142.1785,456.4648,141.2035,446.2207,142.0338,435.9766,141.005,425.7324,141.4315,415.4883,142.2416,405.2441,141.5,395" style="stroke: #A80036; stroke-width: 1.5;"/><text fill="#000000" font-family="sans-serif" font-size="12" lengthAdjust="spacingAndGlyphs" textLength="76" x="155" y="408.6016">Printer_3812</text><path d="M142.5,413.1328 L142.5,413.4131 L152.6,412.5804 L162.7,413.3905 L172.8,413.6657 L182.9,412.1816 L193,413.0292 L203.1,412.5642 L213.2,412.6215 L223.3,413.0419 L233.4,412.211 L243.5,413.1328 " fill="#FEFECE" style="stroke: #A80036; stroke-width: 1.5;"/><polygon fill="none" points="155.5166,424.8625,155.0768,425.4634,154.5567,426.3435,153.8128,426.9366,153.0311,427.2609,152.4078,427.289,151.6067,426.8834,150.8509,426.6184,150.2771,426.0804,149.9762,425.4645,149.7977,424.974,149.6229,424.3335,149.3391,423.7822,149.5572,423.244,149.7482,422.6544,150.4653,422.1881,150.9697,421.5831,151.5941,421.3822,152.3364,421.2092,153.2883,421.312,153.8097,421.5579,154.4158,421.6693,155.1529,422.4244,155.4098,423.2216,155.5214,423.7655,155.395,424.6619" style="stroke: #038048; stroke-width: 1.0;"/><text fill="#000000" font-family="sans-serif" font-size="10" lengthAdjust="spacingAndGlyphs" textLength="21" x="161.5" y="426.8008">bold</text><polygon fill="none" points="155.5166,436.6399,155.0768,437.2407,154.5567,438.1208,153.8128,438.7139,153.0311,439.0382,152.4078,439.0664,151.6067,438.6608,150.8509,438.3958,150.2771,437.8578,149.9762,437.2418,149.7977,436.7514,149.6229,436.1108,149.3391,435.5596,149.5572,435.0213,149.7482,434.4318,150.4653,433.9655,150.9697,433.3605,151.5941,433.1595,152.3364,432.9865,153.2883,433.0893,153.8097,433.3352,154.4158,433.4467,155.1529,434.2018,155.4098,434.999,155.5214,435.5429,155.395,436.4392" style="stroke: #038048; stroke-width: 1.0;"/><text fill="#000000" font-family="sans-serif" font-size="10" lengthAdjust="spacingAndGlyphs" textLength="33" x="161.5" y="438.5781">duplex</text><polygon fill="none" points="155.5166,448.4172,155.0768,449.0181,154.5567,449.8981,153.8128,450.4912,153.0311,450.8156,152.4078,450.8437,151.6067,450.4381,150.8509,450.1731,150.2771,449.6351,149.9762,449.0192,149.7977,448.5287,149.6229,447.8881,149.3391,447.3369,149.5572,446.7987,149.7482,446.2091,150.4653,445.7428,150.9697,445.1378,151.5941,444.9369,152.3364,444.7639,153.2883,444.8667,153.8097,445.1126,154.4158,445.224,155.1529,445.9791,155.4098,446.7763,155.5214,447.3202,155.395,448.2166" style="stroke: #038048; stroke-width: 1.0;"/><text fill="#000000" font-family="sans-serif" font-size="10" lengthAdjust="spacingAndGlyphs" textLength="77" x="161.5" y="450.3555">text orientation</text><!--MD5=[c3a1451e1f15b8c5aae481f06a8372ed]
link Printer_5256 to Printer_5224--><path d="M119,41.27 L119.2802,41.27 L118.4476,50.8287 L119.2577,60.3875 L119.5329,69.9462 L118.0488,79.505 L118.8964,89.0638 L118.4313,98.6225 L118.4887,108.1813 L119,117.74 " fill="none" style="stroke: #A80036; stroke-width: 1.0;"/><polygon fill="#000000" points="124,74.6553,124.0666,74.6769,123.2809,76.4216,122.8857,78.2932,122.3634,80.1235,121.4227,81.8179,121.0611,83.7004,121.0611,83.6745,122.2366,83.5582,123.4122,83.5725,124.5878,83.6776,125.7634,83.4699,126.9389,83.7004,127.1144,83.7574,126.1513,81.8264,125.7007,80.062,125.3125,78.3178,124.5606,76.4555,124,74.6553" style="stroke: #000000; stroke-width: 1.0;"/><text fill="#000000" font-family="sans-serif" font-size="13" lengthAdjust="spacingAndGlyphs" textLength="50" x="133" y="84.5684">extends</text><!--MD5=[67c0dd81a5437c545642f55810cdaa35]
link Printer_5224 to Printer_5219--><path d="M92.06,168.09 L92.132,168.1496 L89.5857,170.7896 L87.4612,173.7788 L85.1993,176.6543 L82.4858,179.1558 L80.3975,182.175 L80.3678,182.1574 L78.355,185.2432 L76.4919,188.418 L74.733,191.6545 L72.6153,194.6781 L71,198 L71.2306,198.0859 L69.7777,200.4783 L68.998,203.1216 L68.3005,205.7954 L67.125,208.2912 L66.2009,210.8806 L66.2304,210.8878 L65.5285,213.5861 L64.9607,216.3171 L64.3281,219.0324 L63.8191,221.7776 L62.9075,224.425 L63.2024,224.4698 L62.7955,227.1717 L62.1985,229.8447 L61.8799,232.5601 L61.5743,235.2774 L60.8553,237.9319 L60.5359,237.905 L60.9407,240.5108 L60.2939,243.0281 L60.4465,245.6127 L59.7758,248.1279 L59.78,250.7 " fill="none" style="stroke: #A80036; stroke-width: 1.0;"/><polygon fill="#000000" points="77.8198,201.9982,77.8739,202.0426,76.5071,203.3817,75.4579,204.9811,74.3052,206.4957,72.8124,207.7315,71.7904,209.3533,71.781,209.3292,72.8336,209.6487,73.9338,210.0899,75.067,210.6157,76.0863,210.8501,77.2651,211.4926,77.4494,211.5033,77.1663,209.5814,77.4212,207.691,77.7417,205.8043,77.6803,203.8954,77.8198,201.9982" style="stroke: #000000; stroke-width: 1.0;"/><text fill="#000000" font-family="sans-serif" font-size="13" lengthAdjust="spacingAndGlyphs" textLength="50" x="85" y="211.5684">extends</text><!--MD5=[2362b0cff52909f8838754921b60035e]
link Printer_5224 to Printer_5553--><path d="M132.06,168.09 L132.3064,168.2236 L136.1988,176.3556 L141.5354,185.2706 L146.4018,193.9307 L149.7216,201.7522 L155.0911,210.6851 L159.3068,218.9923 L163.9816,227.5485 L168.9757,236.2778 L173.68,244.85 " fill="none" style="stroke: #A80036; stroke-width: 1.0;"/><polygon fill="#000000" points="158.6167,202.2598,158.6856,202.2725,158.8265,204.1052,159.3712,206.0124,159.7844,207.8954,159.7651,209.6985,160.3445,211.6121,160.3322,211.5893,161.3102,210.9268,162.3504,210.3791,163.434,209.9111,164.3684,209.1682,165.5117,208.8104,165.6388,208.9442,163.988,207.348,162.7083,206.1424,161.4739,204.9844,159.976,203.5492,158.6167,202.2598" style="stroke: #000000; stroke-width: 1.0;"/><text fill="#000000" font-family="sans-serif" font-size="13" lengthAdjust="spacingAndGlyphs" textLength="50" x="170" y="211.5684">extends</text><!--MD5=[37fed6c2857569584fd4a19a2374ac6c]
link Printer_5553 to Printer_3812--><path d="M193,318.33 L193.2802,318.33 L192.4476,327.9013 L193.2577,337.4725 L193.5329,347.0438 L192.0488,356.615 L192.8964,366.1863 L192.4313,375.7575 L192.4887,385.3288 L193,394.9 " fill="none" style="stroke: #A80036; stroke-width: 1.0;"/><polygon fill="#000000" points="198,351.6553,198.0666,351.6769,197.2809,353.4216,196.8857,355.2932,196.3634,357.1235,195.4227,358.8179,195.0611,360.7004,195.0611,360.6745,196.2366,360.5582,197.4122,360.5725,198.5878,360.6776,199.7634,360.4699,200.9389,360.7004,201.1144,360.7574,200.1513,358.8264,199.7007,357.062,199.3125,355.3178,198.5606,353.4555,198,351.6553" style="stroke: #000000; stroke-width: 1.0;"/><text fill="#000000" font-family="sans-serif" font-size="13" lengthAdjust="spacingAndGlyphs" textLength="50" x="207" y="361.5684">extends</text><!--MD5=[0516140fb5b6bd4a2cf5832b801cd501]
@startuml

' title Feature sets per printer type, ordered/shown in hierarchical order

skinparam backgroundColor #ffffff
skinparam handwritten true

Object Printer_5256
Object Printer_5224
Object Printer_5219
Object Printer_5553
Object Printer_3812

Printer_5224 : +CPI
Printer_5224 : +LPI

Printer_5219 : +Margins
Printer_5219 : +form size & type
Printer_5219 : +drawer number

Printer_5553 : +rotation
Printer_5553 : +grid lines
Printer_5553 : +font scaling
Printer_5553 : +DBCS

Printer_3812 : + bold
Printer_3812 : + duplex
Printer_3812 : + text orientation

Printer_5256 - - Printer_5224 : < extends
Printer_5224 - - Printer_5219 : < extends
Printer_5224 - - Printer_5553 : < extends
Printer_5553 - - Printer_3812 : < extends

@enduml

@startuml


skinparam backgroundColor #ffffff
skinparam handwritten true

Object Printer_5256
Object Printer_5224
Object Printer_5219
Object Printer_5553
Object Printer_3812

Printer_5224 : +CPI
Printer_5224 : +LPI

Printer_5219 : +Margins
Printer_5219 : +form size & type
Printer_5219 : +drawer number

Printer_5553 : +rotation
Printer_5553 : +grid lines
Printer_5553 : +font scaling
Printer_5553 : +DBCS

Printer_3812 : + bold
Printer_3812 : + duplex
Printer_3812 : + text orientation

Printer_5256 - - Printer_5224 : < extends
Printer_5224 - - Printer_5219 : < extends
Printer_5224 - - Printer_5553 : < extends
Printer_5553 - - Printer_3812 : < extends

@enduml

PlantUML version 1.2020.20(Sat Nov 21 11:02:45 CET 2020)
(GPL source distribution)
Java Runtime: OpenJDK Runtime Environment
JVM: OpenJDK 64-Bit Server VM
Default Encoding: UTF-8
Language: en
Country: GB
--></g></svg>